<?xml version="1.0" standalone="no"?>
<!DOCTYPE svg PUBLIC "-//W3C//DTD SVG 20010904//EN"
 "http://www.w3.org/TR/2001/REC-SVG-20010904/DTD/svg10.dtd">
<svg version="1.0" xmlns="http://www.w3.org/2000/svg"
 width="1028.000000pt" height="1028.000000pt" viewBox="0 0 1028.000000 1028.000000"
 preserveAspectRatio="xMidYMid meet">
<metadata>
Created by potrace 1.11, written by Peter Selinger 2001-2013
</metadata>
<g transform="translate(0.000000,1028.000000) scale(0.100000,-0.100000)"
fill="#000000" stroke="none">
<path d="M8407 7753 c-1 -1 -88 -4 -192 -8 -105 -3 -226 -8 -270 -10 -44 -2
-174 -7 -290 -11 -115 -3 -217 -8 -227 -9 -10 -2 -67 -5 -126 -6 -59 -1 -113
-4 -119 -6 -7 -3 -94 -132 -193 -286 -100 -155 -231 -358 -291 -452 -60 -93
-129 -199 -151 -235 -23 -36 -119 -184 -213 -330 -94 -146 -197 -305 -229
-355 -31 -49 -129 -200 -216 -335 -87 -135 -215 -334 -285 -443 -70 -108 -132
-200 -137 -203 -5 -3 -97 81 -204 187 -107 107 -202 197 -212 200 -9 4 -98 10
-197 13 -99 4 -191 9 -205 11 -57 8 -341 18 -580 21 -417 4 -792 5 -795 2 -3
-3 -44 43 1300 -1468 550 -618 1014 -1140 1032 -1159 17 -20 33 -34 36 -31 5
6 68 108 344 558 113 185 229 375 258 422 29 47 140 227 246 400 106 173 288
470 404 660 117 190 324 527 460 750 319 521 498 814 595 970 43 69 135 220
205 335 71 116 138 226 150 245 35 55 293 476 326 531 l29 50 -126 -3 c-69 -2
-126 -4 -127 -5z"/>
</g>
</svg>
